<svg width="55" height="45" viewBox="0 0 55 45" fill="none" xmlns="http://www.w3.org/2000/svg">
<path fill-rule="evenodd" clip-rule="evenodd" d="M15.761 0.508284C14.1746 1.14132 12.7111 2.47847 12.7111 3.29545C12.7111 3.5739 12.2161 4.29105 11.6111 4.88929C11.0061 5.48752 10.5111 5.92719 10.5111 5.86652C10.5111 5.80585 10.668 5.38455 10.8599 4.93062C11.3271 3.82528 11.5828 1.36587 11.3056 0.642675C11.086 0.069821 11.0675 0.0794895 10.1997 1.2032C8.69782 3.148 8.32602 4.88059 8.92149 7.15822C9.04322 7.624 8.87651 8.08228 8.23484 9.04598L7.38736 10.3183L7.50982 8.7934C7.62813 7.31896 7.3502 5.72174 6.84444 4.97195C6.62713 4.64975 6.57262 4.64975 6.35458 4.97195C5.94391 5.57913 5.3702 7.675 5.22989 9.08103C5.12502 10.1346 5.20276 10.6091 5.60438 11.3679C6.22844 12.5472 6.23064 12.7657 5.63347 14.2778L5.15631 15.4864L5.14238 14.2778C5.12796 13.0163 4.30589 10.9115 3.60336 10.337C3.26407 10.0592 3.18291 10.1885 2.92453 11.4196C2.41902 13.8265 2.81844 15.8393 4.13893 17.5409C4.54129 18.0596 4.58236 18.3676 4.42884 19.7163L4.24991 21.2874L3.93824 20.2215C3.76689 19.6353 3.45107 18.8739 3.23596 18.5295C2.7038 17.677 1.42267 16.3323 1.14204 16.3323C1.01053 16.3323 0.962133 17.0826 1.02813 18.098C1.17896 20.4238 2.07484 22.4174 3.28656 23.1244C4.06682 23.5796 4.15556 23.7369 4.15556 24.6651C4.15556 25.2336 4.22424 26.0658 4.30784 26.5144L4.46038 27.3302L3.68304 26.1958C2.65369 24.6936 0 22.9543 0 23.7814C0 24.5082 0.858244 26.5727 1.57422 27.5685C2.49016 28.8423 3.21689 29.3625 4.09958 29.3763C4.44009 29.3813 4.74296 29.5952 4.88229 29.9286C5.0072 30.2278 5.37411 31.1449 5.69727 31.9664L6.28516 33.4607L5.40369 32.782C4.37824 31.9925 3.19293 31.5601 2.05407 31.5601C1.2672 31.5601 1.25376 31.5775 1.49918 32.2734C1.88833 33.3778 3.55056 35.0874 4.66278 35.5273C5.2888 35.7751 5.96762 35.8686 6.46653 35.7763C7.21967 35.6366 7.3326 35.7137 8.39789 37.0987C9.02 37.9077 9.4886 38.5697 9.43898 38.5697C9.38911 38.5697 8.95376 38.4066 8.47098 38.2071C7.98844 38.0077 7.19009 37.8446 6.69729 37.8446C5.67502 37.8446 3.91111 38.3142 3.91111 38.5864C3.91111 38.9011 5.4582 40.0758 6.47778 40.5355C7.69951 41.0862 9.36907 41.1101 10.2601 40.5897C10.9281 40.1996 10.9648 40.21 12.3542 41.194L13.7686 42.1954H12.4987C11.1452 42.1954 9.88802 42.6094 8.89387 43.3829L8.283 43.8579L8.84693 44.2219C9.70762 44.7768 11.682 45.1331 12.8984 44.9528C13.5992 44.8489 14.2905 44.5293 14.8317 44.0594C15.6564 43.3435 15.7014 43.3338 16.9248 43.6132C18.7455 44.0287 18.9449 43.5651 17.1937 42.9889L15.7667 42.5195L15.6278 40.9431C15.5318 39.853 15.2863 39.0249 14.8324 38.2589C14.2135 37.2142 13.0475 36.1526 12.5195 36.1526C12.1604 36.1526 12.9081 39.7623 13.4611 40.6982L13.9331 41.4973L13.1924 41.0649C12.7852 40.827 12.1166 40.29 11.7064 39.8716C11.0066 39.1578 10.977 39.0536 11.2234 38.1757C11.768 36.2365 11.5011 34.5027 10.362 32.5804C9.71667 31.4917 9.69638 31.4796 9.4776 32.0571C9.35464 32.3819 9.23413 33.6956 9.21018 34.9764C9.16691 37.2978 9.1652 37.3032 8.7274 36.6684C7.57851 35.004 7.55993 34.8868 8.22433 33.5139C9.05471 31.7984 9.20969 30.0702 8.69122 28.3072C8.44018 27.453 8.19036 26.9903 8.05371 27.1254C7.63693 27.5376 6.6 30.8183 6.59633 31.7368C6.59144 32.9248 6.27587 32.4472 5.71707 30.4062L5.29931 28.8803L6.16733 27.9842C7.68533 26.417 8.42136 24.2191 8.09038 22.2405L7.94444 21.3684L6.74642 22.983C6.0874 23.8711 5.41591 24.9786 5.25409 25.4439C4.88302 26.511 4.64444 26.0266 4.64444 24.2056C4.64444 22.9712 5.10229 22.1334 5.77696 22.1334C6.22502 22.1334 7.55211 20.5637 8.02487 19.4746C8.64478 18.0466 8.94789 16.16 8.50324 16.4967C6.62151 17.9216 5.96151 18.5123 5.4472 19.2329L4.84293 20.0789L5.00867 18.8703C5.24651 17.1343 5.61758 16.4977 6.49464 16.3207C7.72127 16.0735 8.78289 15.3145 9.52062 14.1574C10.2398 13.0294 10.6583 11.9816 10.3896 11.9816C10.0613 11.9816 7.66676 13.0569 7.02778 13.4913C6.21964 14.0404 6.21011 13.9764 6.87451 12.4493L7.39347 11.2564H8.56973C9.21678 11.2564 10.0557 11.1409 10.4341 11C11.1767 10.723 12.5996 9.47744 12.9959 8.75762C13.2262 8.33898 13.1433 8.32327 11.5703 8.4857C10.6517 8.58069 9.58613 8.81636 9.2026 9.00973L8.5052 9.36093L8.95816 8.60051C9.77533 7.2288 10.1371 7.03253 11.2444 7.36054C12.5495 7.74703 13.9399 7.36948 15.1079 6.31103L15.9986 5.50372L14.586 5.3292C13.8092 5.23324 12.7668 5.21632 12.2701 5.29174L11.3667 5.42878L12.2129 4.71695C12.6784 4.32538 13.2614 4.00511 13.5085 4.00511C14.6603 4.00511 16.3355 2.5679 16.9904 1.01805C17.2069 0.505142 17.3477 0.0495169 17.3032 0.00552562C17.2588 -0.0387074 16.5648 0.187534 15.761 0.508284ZM37.6444 0.0352563C37.6444 0.100276 37.8153 0.557593 38.0241 1.05189C38.6652 2.56959 40.3507 4.00511 41.4915 4.00511C41.7386 4.00511 42.3216 4.32538 42.7871 4.71695L43.6333 5.42878L42.7299 5.29174C42.2332 5.21632 41.1908 5.23324 40.414 5.3292L39.0014 5.50372L39.8921 6.31103C41.0601 7.36948 42.4505 7.74703 43.7556 7.36054C44.8629 7.03253 45.2247 7.2288 46.0418 8.60051L46.4948 9.36093L45.7974 9.00973C45.4139 8.81636 44.3483 8.58069 43.4297 8.4857C41.8567 8.32327 41.7738 8.33898 42.0041 8.75762C42.4004 9.47744 43.8233 10.723 44.5659 11C44.9443 11.1409 45.7832 11.2564 46.4303 11.2564H47.6065L48.1255 12.4493C48.7899 13.9764 48.7804 14.0404 47.9722 13.4913C47.3332 13.0569 44.9387 11.9816 44.6104 11.9816C44.3417 11.9816 44.7602 13.0294 45.4794 14.1574C46.2171 15.3145 47.2787 16.0735 48.5054 16.3207C49.3824 16.4977 49.7535 17.1343 49.9913 18.8703L50.1571 20.0789L49.5528 19.2329C49.0385 18.5123 48.3785 17.9216 46.4968 16.4967C46.0521 16.16 46.3552 18.0466 46.9751 19.4746C47.4674 20.6089 48.7808 22.1334 49.2656 22.1334C49.8943 22.1334 50.3556 23.0282 50.3556 24.2476C50.3556 26.0295 50.1143 26.503 49.7459 25.4439C49.5841 24.9786 48.9126 23.8711 48.2536 22.983L47.0556 21.3684L46.9096 22.2405C46.5786 24.2191 47.3147 26.417 48.8327 27.9842L49.7007 28.8803L49.2829 30.4062C48.7241 32.4472 48.4086 32.9248 48.4037 31.7368C48.4 30.8183 47.3631 27.5376 46.9463 27.1254C46.8096 26.9903 46.5598 27.453 46.3088 28.3072C45.7903 30.0702 45.9453 31.7984 46.7757 33.5139C47.4401 34.8868 47.4215 35.004 46.2726 36.6684C45.8348 37.3032 45.8331 37.2978 45.7898 34.9764C45.7659 33.6956 45.6454 32.3819 45.5224 32.0571C45.3036 31.4796 45.2833 31.4917 44.638 32.5804C43.4989 34.5027 43.232 36.2365 43.7766 38.1757C44.023 39.0536 43.9934 39.1578 43.2936 39.8716C42.8834 40.29 42.2148 40.827 41.8076 41.0649L41.0669 41.4973L41.5389 40.6982C42.0919 39.7623 42.8396 36.1526 42.4805 36.1526C41.9525 36.1526 40.7865 37.2142 40.1676 38.2589C39.7137 39.0249 39.4682 39.853 39.3722 40.9431L39.2333 42.5195L37.8063 42.9889C36.0551 43.5651 36.2545 44.0287 38.0752 43.6132C39.2986 43.3338 39.3436 43.3435 40.1683 44.0594C40.7064 44.5267 41.4011 44.8489 42.0906 44.9511C43.2835 45.128 45.41 44.7626 46.1027 44.2618C46.4884 43.9831 46.5026 43.8852 46.2086 43.5349C45.627 42.8422 44.4256 42.3624 42.9046 42.2157L41.4424 42.0745L42.7453 41.1302C44.0269 40.201 44.0594 40.1921 44.7341 40.5863C45.6304 41.1099 47.2976 41.0876 48.5222 40.5355C49.5418 40.0758 51.0889 38.9011 51.0889 38.5864C51.0889 38.3142 49.325 37.8446 48.3027 37.8446C47.8099 37.8446 47.0116 38.0077 46.529 38.2071C46.0462 38.4066 45.6109 38.5697 45.561 38.5697C45.5114 38.5697 45.98 37.9077 46.6021 37.0987C47.6674 35.7137 47.7803 35.6366 48.5335 35.7763C49.0324 35.8686 49.7112 35.7751 50.3372 35.5273C51.4494 35.0874 53.1117 33.3778 53.5008 32.2734C53.7462 31.5775 53.7328 31.5601 52.9459 31.5601C51.8071 31.5601 50.6218 31.9925 49.5963 32.782L48.7148 33.4607L49.3027 31.9664C49.6259 31.1449 49.9928 30.2278 50.1177 29.9286C50.2524 29.6066 50.5562 29.3847 50.8625 29.3847C51.699 29.3847 52.6558 28.6876 53.5016 27.4619C54.176 26.4847 55 24.4637 55 23.7869C55 22.9547 52.3505 24.6876 51.317 26.1958L50.5396 27.3302L50.6922 26.5144C50.7758 26.0658 50.8444 25.2336 50.8444 24.6651C50.8444 23.7369 50.9332 23.5796 51.7134 23.1244C52.9252 22.4174 53.821 20.4238 53.9719 18.098C54.0379 17.0826 53.9895 16.3323 53.858 16.3323C53.5773 16.3323 52.2962 17.677 51.764 18.5295C51.5489 18.8739 51.2331 19.6353 51.0618 20.2215L50.7501 21.2874L50.5712 19.7163C50.4176 18.3676 50.4587 18.0596 50.8611 17.5409C52.1816 15.8393 52.581 13.8265 52.0755 11.4196C51.8171 10.1885 51.7359 10.0592 51.3966 10.337C50.6941 10.9115 49.872 13.0163 49.8576 14.2778L49.8437 15.4864L49.3665 14.2778C48.7694 12.7657 48.7716 12.5472 49.3956 11.3679C49.7972 10.6091 49.875 10.1346 49.7701 9.08103C49.6298 7.675 49.0561 5.57913 48.6454 4.97195C48.4274 4.64975 48.3729 4.64975 48.1556 4.97195C47.6498 5.72174 47.3719 7.31896 47.4902 8.7934L47.6126 10.3183L46.7652 9.04598C46.1235 8.08228 45.9568 7.624 46.0785 7.15822C46.674 4.88059 46.3022 3.148 44.8003 1.2032C43.9325 0.0794895 43.914 0.069821 43.6944 0.642675C43.4172 1.36587 43.6729 3.82528 44.1401 4.93062C44.332 5.38455 44.4889 5.80585 44.4889 5.86652C44.4889 5.92719 43.9939 5.48752 43.3889 4.88929C42.7839 4.29105 42.2889 3.58381 42.2889 3.31768C42.2889 2.6948 41.2163 1.43524 40.2764 0.954723C39.3338 0.47251 37.6444 -0.117505 37.6444 0.0352563ZM26.8989 11.4222C26.7569 11.6635 25.9392 13.2817 25.0822 15.0187L23.5236 18.1768L19.5793 18.7461C17.0803 19.1067 15.5298 19.4407 15.3477 19.6576C15.114 19.9363 15.6114 20.5396 18.0224 22.9016L20.9843 25.8028L20.3945 29.2254C19.6822 33.3587 19.6575 33.9772 20.2058 33.9772C20.429 33.9772 22.1621 33.1718 24.0575 32.1874L27.5034 30.3972L30.9239 32.1832C32.8052 33.1656 34.5368 33.9709 34.7722 33.9731C35.3457 33.9787 35.3254 33.4034 34.6055 29.2254L34.0157 25.8028L36.9776 22.9016C39.3886 20.5396 39.886 19.9363 39.6523 19.6576C39.4702 19.4407 37.9187 19.1065 35.4178 18.7456L31.4708 18.1759L29.7259 14.6583C27.9752 11.129 27.4355 10.511 26.8989 11.4222Z" fill="#C7C7C7"/>
</svg>
