<svg width="1906" height="400" viewBox="0 0 1906 400" fill="none" xmlns="http://www.w3.org/2000/svg">
<g clip-path="url(#clip0_5_2)">
<mask id="mask0_5_2" style="mask-type:luminance" maskUnits="userSpaceOnUse" x="0" y="0" width="1906" height="400">
<path d="M1906 0H0V400H1906V0Z" fill="white"/>
</mask>
<g mask="url(#mask0_5_2)">
<path d="M39.9973 139.114C23.1984 135.915 6.33291 131.784 0 130.118V400H1905.87V163.103C1906.37 161.104 1905.67 156.506 1898.87 154.107C1890.37 151.109 1879.87 154.607 1864.88 147.61C1849.88 140.613 1851.88 137.615 1840.88 137.615H1808.38C1792.88 137.615 1783.88 127.619 1766.88 126.12C1749.88 124.62 1742.38 137.615 1732.38 142.612C1722.38 147.61 1727.38 150.609 1723.38 147.61C1719.38 144.612 1717.38 147.61 1709.89 147.61C1702.39 147.61 1699.39 139.614 1690.89 137.615C1682.39 135.615 1670.39 153.108 1663.89 147.61C1657.39 142.113 1651.39 145.611 1641.89 147.61C1632.39 149.609 1630.89 162.104 1628.39 163.103C1625.89 164.103 1626.89 156.606 1610.39 157.106C1593.89 157.606 1553.9 185.094 1547.9 191.591C1541.9 198.088 1501.9 220.578 1478.4 229.075C1454.9 237.571 1419.9 263.06 1409.91 263.06H1397.41L1388.41 276.054V267.558L1376.91 282.052C1374.41 282.551 1367.61 284.051 1360.41 286.05C1351.41 288.549 1336.41 302.043 1333.91 302.043C1331.41 302.043 1314.41 302.043 1298.91 313.538C1286.51 322.734 1254.75 309.706 1240.42 302.043C1227.75 299.877 1199.92 293.646 1189.92 286.05C1179.92 278.453 1169.75 277.887 1165.92 278.553C1163.26 281.052 1151.92 284.051 1127.92 276.054C1103.93 268.058 1118.92 267.558 1106.93 263.06C1098.93 263.06 1102.93 271.056 1094.93 271.056C1084.93 271.056 1065.93 260.561 1066.93 267.558C1067.73 273.155 1055.26 275.554 1048.93 276.054C1036.6 278.72 1018.5 284 1007.93 276.054C1011.5 274 1011.43 267.558 1007.93 267.558C991.43 267.558 981 264.893 982 267.558L978 271.056H965.935L963 259C960.334 255.668 952 252 929.5 256C906.502 265.995 889.94 248.066 843.943 244.068C797.946 240.07 790.947 235.072 755.949 226.076C727.951 218.879 693.62 219.079 679.954 220.079L655.956 203.086L645.957 209.083C641.624 211.416 627.358 211.682 604.959 194.09C576.961 172.1 573.961 190.092 533.964 194.09C493.967 198.088 482.968 182.095 449.97 162.104C416.972 142.113 384.974 151.109 357.976 151.109C330.978 151.109 320.978 173.099 262.982 146.111C204.986 119.123 208.986 130.118 187.987 139.114C166.989 148.11 156.989 139.114 134.991 139.114C112.992 139.114 94.9936 154.107 82.9944 151.109C70.9952 148.11 60.9959 143.112 39.9973 139.114Z" fill="#212121"/>
<path d="M1024.68 207.954C1025.44 206.431 1027.08 202.473 1027.53 198.818C1027.99 195.164 1028.86 191.967 1029.25 190.825C1029.63 189.302 1029.82 185.8 1027.53 183.973C1024.68 181.689 1025.82 183.374 1021.82 181.661C1013.26 179.948 1016.11 180.519 1011.55 178.235C1010.1 177.513 1007.55 174.81 1006.41 173.668C1005.5 172.765 1003.16 171.756 1000.82 171.189L980.142 293H979C985.722 253.413 999.061 175.283 1000.07 171.023C999.703 170.949 999.338 170.888 998.984 170.841C994.416 170.242 996.7 162.848 998.984 161.135C1001.27 159.421 1001.27 160.754 1002.41 161.135L1004.69 165.132C1005.84 165.893 1008.8 167.415 1011.55 167.415C1014.97 167.415 1017.83 169.699 1019.54 167.415C1021.25 165.132 1023.54 163.419 1024.68 162.848C1025.82 162.277 1024.68 157.138 1023.54 155.425C1022.39 153.712 1021.25 150.857 1022.39 148.003C1023.54 145.148 1024.68 144.006 1023.54 143.435C1022.39 142.864 1022.96 142.864 1019.54 142.864C1016.11 142.864 1018.4 141.151 1017.25 138.867C1016.34 137.04 1016.68 136.612 1014.97 136.583C1013.26 136.555 1014.97 132.586 1014.97 132.586C1014.21 130.112 1013.14 124.593 1014.97 122.309C1017.25 119.454 1020.11 117.741 1022.39 117.741C1024.68 117.741 1028.1 116.028 1032.67 120.596C1039 129 1033 137 1036 134C1038.85 132.287 1040.43 130.5 1045 130.5C1049.56 130.5 1050 129.414 1055.5 130.5C1058.5 131.092 1057.5 131.5 1062 131.5C1063.33 131.12 1071.5 136.583 1068 145.5C1070.85 148.355 1073.21 157.645 1074.92 160.5C1076.64 163.355 1076 162.276 1076 167.415C1076 172.554 1077.5 174.267 1077.5 174.267C1077.88 175.029 1078 178 1078 178L1079 181C1079 183.5 1079.49 184.545 1079.49 184.545C1080.06 185.687 1078.92 191.967 1074.92 194.251C1070.93 196.535 1067.5 198.248 1061.22 197.106V212.522C1061.22 215.377 1061.22 226.796 1060.08 229.651C1059.16 231.935 1059.7 234.028 1060.08 234.79C1060.46 235.361 1061.22 236.503 1061.22 237.645C1061.22 238.786 1062.93 242.184 1064.07 242.184C1065.22 242.184 1070.35 243.326 1074.35 246.181C1077.64 248.527 1083.49 255.316 1085.2 256.458C1086.91 257.6 1089.77 259.912 1092.05 259.912H1096.62C1100.05 262.168 1090.91 275.871 1094.91 274.757C1095.68 274.541 1096.62 281.609 1093.76 282.18C1090.91 282.751 1088.05 282.18 1085.2 282.18C1082.35 282.18 1079.49 282.18 1080.06 278.754C1080.63 275.328 1084.63 276.47 1085.77 275.899C1086.91 275.328 1087.48 273.616 1086.34 270.761C1085.43 268.477 1083.68 266.383 1082.92 265.622C1082.92 264.48 1082.23 261.968 1079.49 261.054C1076.06 259.912 1065.22 251.919 1060.08 249.064C1054.94 246.209 1051.51 245.638 1049.8 241.07C1048.43 237.416 1046.95 234.599 1046.37 233.648L1045.23 231.364C1045.61 229.651 1045.46 225.997 1044.09 225.083C1042.38 223.941 1039.52 223.941 1038.95 222.228C1036.48 224.893 1030.84 230.793 1028.1 233.077C1024.68 235.932 1025.82 241.613 1026.96 244.468C1028.1 247.323 1025.82 259.912 1029.25 267.906C1030.01 269.048 1031.76 271.56 1032.67 272.474C1033.58 273.387 1033.81 275.899 1033.81 277.041C1030.77 278.374 1023.99 281.038 1021.25 281.038H1011.55C1010.78 280.087 1009.72 277.955 1011.55 277.041C1013.83 275.899 1015.54 275.899 1018.4 274.757C1021.25 273.616 1021.25 273.616 1021.82 271.332C1022.28 269.505 1022.01 266.764 1021.82 265.622C1020.49 260.674 1017.71 249.977 1017.25 246.78C1016.68 242.783 1014.97 235.361 1016.11 231.364C1017.25 227.367 1021.82 210.238 1024.68 207.954Z" fill="#212121"/>
<path d="M1003.55 155.113L1001.84 163.107L1002.41 165.39L1005.84 155.113L1004.69 154.542L1003.55 155.113Z" fill="#232930"/>
</g>
</g>
<defs>
<clipPath id="clip0_5_2">
<rect width="1906" height="400" fill="white"/>
</clipPath>
</defs>
</svg>
