<svg width="34" height="24" viewBox="0 0 34 24" fill="none" xmlns="http://www.w3.org/2000/svg">
<path fill-rule="evenodd" clip-rule="evenodd" d="M4.95926 7.02992C4.45336 7.1152 3.95534 7.3673 3.59962 7.71816C3.35359 7.96086 3.09444 8.37655 2.98015 8.7118C2.88291 8.997 2.8804 9.05943 2.86605 11.5594L2.85134 14.1155L2.39267 14.1404C1.70605 14.1778 1.23047 14.3682 0.769371 14.7904C0.483949 15.0518 0.234913 15.4317 0.103986 15.8056L0 16.1024V19.8372C0 23.5401 0.000809586 23.573 0.0927419 23.6945C0.258886 23.9141 0.416214 24 0.652162 24C0.888019 24 1.04526 23.9142 1.21158 23.6947C1.28921 23.5923 1.3068 23.4932 1.31953 23.0873L1.33477 22.6024H11.4915H21.6483L21.6635 23.0873C21.6763 23.4932 21.6939 23.5923 21.7715 23.6947C21.9378 23.9142 22.0951 24 22.3309 24C22.5668 24 22.7241 23.9141 22.8903 23.6945C22.9819 23.5735 22.9832 23.529 22.9957 19.9703C23.0068 16.8112 22.9995 16.3293 22.9368 16.0488C22.8416 15.6227 22.655 15.267 22.3552 14.9403C21.8816 14.424 21.3414 14.1789 20.5904 14.1395L20.1317 14.1155L20.117 11.5594C20.1027 9.05943 20.1002 8.997 20.0029 8.7118C19.7414 7.94476 19.1322 7.35443 18.328 7.08884C18.0927 7.01115 17.7657 7.00685 11.6265 7.00059C8.07668 6.997 5.07647 7.01017 4.95926 7.02992ZM17.9655 8.38556C18.1372 8.43587 18.2647 8.5152 18.4201 8.6685C18.7823 9.0258 18.7778 8.98693 18.7778 11.7401V14.128H17.5184C16.8258 14.128 16.2591 14.1184 16.2591 14.1067C16.2591 14.0951 16.3097 13.9368 16.3715 13.7551C16.4736 13.4551 16.4839 13.3563 16.4839 12.6846C16.4839 12.1536 16.4638 11.8675 16.4127 11.6719C16.1986 10.8529 15.4881 10.1492 14.6605 9.93651C14.266 9.83513 8.71711 9.83513 8.32257 9.93651C7.49792 10.1484 6.78369 10.8558 6.57037 11.6719C6.51928 11.8675 6.49913 12.1536 6.49913 12.6846C6.49913 13.3563 6.50952 13.4551 6.61157 13.7551C6.67341 13.9368 6.72401 14.0951 6.72401 14.1067C6.72401 14.1184 6.1573 14.128 5.46466 14.128H4.20532V11.7401C4.20532 9.69195 4.21544 9.31863 4.27647 9.11596C4.37376 8.79269 4.64577 8.51321 4.97073 8.40255C5.20794 8.32176 5.45481 8.31852 11.4721 8.31714C17.0366 8.31586 17.7533 8.3234 17.9655 8.38556ZM14.4835 11.2827C14.7144 11.3862 14.9456 11.6142 15.0505 11.842C15.1174 11.9874 15.1328 12.1363 15.1337 12.6448C15.1346 13.2389 15.1287 13.2807 15.011 13.5097C14.8731 13.7777 14.5998 14.0091 14.3352 14.0816C14.1065 14.1442 8.87655 14.1442 8.64789 14.0816C8.38329 14.0091 8.10997 13.7777 7.97211 13.5097C7.85441 13.2807 7.84847 13.2389 7.84942 12.6448C7.85054 11.9427 7.89597 11.7807 8.16673 11.5136C8.4965 11.1883 8.35522 11.2016 11.4915 11.2016C14.1179 11.2016 14.3145 11.2069 14.4835 11.2827ZM20.8568 15.5054C21.1071 15.574 21.3895 15.8093 21.5189 16.057C21.6313 16.2722 21.6341 16.3004 21.6473 17.3322L21.6608 18.3874H11.4915H1.32227L1.33576 17.3322C1.34894 16.3061 1.3524 16.2712 1.46192 16.0613C1.59033 15.8154 1.82075 15.6135 2.07464 15.5242C2.22054 15.4729 3.74575 15.4627 11.469 15.4612C17.6878 15.4601 20.7438 15.4745 20.8568 15.5054ZM21.6563 20.4949V21.2713H11.4915H1.32681V20.4949V19.7184H11.4915H21.6563V20.4949Z" fill="#4635ff"/>
<path fill-rule="evenodd" clip-rule="evenodd" d="M26.3347 0.0913186C23.1622 1.13932 21.3678 4.32593 22.2052 7.42462C22.7709 9.51772 24.4678 11.1775 26.6569 11.7789C27.2718 11.9478 27.6762 12 28.3709 12C29.0322 12 29.4129 11.9546 29.9912 11.807C31.2596 11.4831 32.479 10.726 33.2778 9.76644C33.5081 9.48968 33.8321 9.02446 33.9373 8.81915C34.0079 8.68157 34.0127 8.6544 33.9821 8.56593C33.903 8.33725 33.7273 8.32582 33.3717 8.52618C31.3502 9.66536 28.7225 9.35867 27.013 7.78401C26.208 7.04248 25.6976 6.16309 25.4633 5.11394C25.3915 4.79262 25.3847 4.70846 25.3836 4.12C25.3827 3.60567 25.3934 3.42118 25.4374 3.19756C25.6275 2.23068 26.0907 1.34078 26.7726 0.632483C26.9868 0.410063 27.0085 0.376967 27.0085 0.273934C27.0085 0.185715 26.9894 0.142165 26.9229 0.078684C26.8095 -0.0294649 26.6927 -0.0269492 26.3347 0.0913186Z" fill="#4635ff"/>
</svg>
