<svg
width="20"
height="14"
viewBox="0 0 20 14"
fill="none"
xmlns="http://www.w3.org/2000/svg"
>
<path
  d="M19.882 6.32746C19.6237 5.81557 19.1986 5.60339 18.6312 5.60378C14.1328 5.60847 9.63484 5.60613 5.13647 5.60652C5.06496 5.60652 4.99306 5.60769 4.92195 5.61082C4.20999 5.64247 3.65121 6.33137 3.76727 7.03394C3.87512 7.68651 4.38739 8.10071 5.0931 8.10071C9.61726 8.10149 14.1414 8.1011 18.666 8.1011C18.705 8.1011 18.7441 8.10188 18.7832 8.09992C19.1661 8.07882 19.4799 7.92565 19.7284 7.62906C19.8546 7.47823 19.8972 7.28833 20.0004 7.12851C20.0004 6.9597 20.0004 6.79089 20.0004 6.62248C19.9613 6.52401 19.9297 6.42163 19.882 6.32746Z"
  fill="#020202"
></path>
<path
  d="M13.0321 11.208C11.2373 11.2221 9.44259 11.2119 7.64824 11.2127C6.74443 11.2131 5.84061 11.2041 4.9368 11.2217C4.4296 11.2314 4.06619 11.5046 3.86261 11.9606C3.6645 12.4041 3.73132 12.8284 4.02008 13.2219C4.20921 13.4794 4.48665 13.5935 4.76604 13.7088C4.79222 13.7088 4.81801 13.7088 4.84419 13.7088C7.63066 13.7088 10.4171 13.7088 13.2036 13.7088C13.2427 13.7088 13.2818 13.7088 13.3208 13.7088C13.329 13.6639 13.3658 13.6748 13.3959 13.669C14.0844 13.5338 14.5228 12.8093 14.3364 12.1333C14.2071 11.6656 13.755 11.2025 13.0321 11.208Z"
  fill="#020202"
></path>
<path
  d="M0.0359494 1.60089C0.249692 2.23665 0.839732 2.5938 1.46963 2.48087C2.03818 2.37888 2.59344 1.79822 2.50161 1.13863C2.4344 0.655655 2.19409 0.30632 1.75097 0.110942C1.31958 -0.0793551 0.905769 -0.0172251 0.518141 0.247707C0.242268 0.43566 0.123088 0.72599 0 1.01515C0 1.19685 0 1.37855 0 1.56025C0.0121134 1.57393 0.0304789 1.58526 0.0359494 1.60089Z"
  fill="#020202"
></path>
<path
  d="M0.0699451 7.23909C0.278608 7.89048 1.03941 8.27655 1.6822 8.05108C2.10461 7.90298 2.54616 7.39149 2.51216 6.83505C2.48051 6.31535 2.23512 5.9539 1.78419 5.73351C1.33873 5.51586 0.90577 5.57995 0.501338 5.8652C0.234062 6.05393 0.119962 6.33879 0 6.62248C0 6.77839 0 6.93391 0 7.08982C0.065256 7.11913 0.0539242 7.18907 0.0699451 7.23909Z"
  fill="#020202"
></path>
<path
  d="M0.484536 11.4839C0.232108 11.6812 0.1141 11.9508 0 12.2298C0 12.3857 0 12.5412 0 12.6972C0.115663 12.9762 0.241877 13.245 0.490006 13.4412C0.649825 13.5674 0.843639 13.6143 1.01557 13.7096C1.18477 13.7096 1.35397 13.7096 1.52355 13.7096C1.53879 13.6998 1.55286 13.6854 1.56927 13.6815C2.18705 13.5345 2.66885 12.9066 2.48637 12.1907C2.23551 11.2041 1.15546 10.9595 0.484536 11.4839Z"
  fill="#020202"
></path>
<path
  d="M5.08333 2.49416C9.19563 2.49494 13.3079 2.49455 17.4206 2.49416C17.4855 2.49416 17.5507 2.49416 17.6156 2.48908C18.2236 2.44258 18.73 1.91349 18.7488 1.30665C18.7715 0.563436 18.2252 0.00387565 17.462 0.00270338C15.393 -0.000422653 13.3236 0.00153112 11.2545 0.00153112C10.7794 0.00153112 10.3046 0.00153112 9.82944 0.00153112C8.22226 0.00153112 6.61509 -0.00315794 5.00791 0.00387565C4.18498 0.0077832 3.59924 0.754515 3.78915 1.53524C3.93334 2.12802 4.42491 2.49416 5.08333 2.49416Z"
  fill="#020202"
></path>
</svg>