<svg
                width="20"
                height="23"
                viewBox="0 0 20 23"
                fill="none"
                xmlns="http://www.w3.org/2000/svg"
              >
                <path
                  d="M19.9917 11.4099C19.9917 9.73664 19.9769 8.06334 19.9998 6.39078C20.0072 5.83302 19.8018 5.4762 19.3201 5.20064C16.4427 3.5532 13.5704 1.89542 10.7084 0.219906C10.2164 -0.0682112 9.81154 -0.0763376 9.31583 0.213996C6.43318 1.90428 3.53945 3.57462 0.64203 5.23758C0.197296 5.49319 0.00300149 5.82785 0.00447901 6.33907C0.0140829 9.6731 0.0192542 13.0071 4.64416e-05 16.3412C-0.00364737 16.9314 0.21281 17.2956 0.718862 17.5845C3.58821 19.2238 6.45018 20.8764 9.3018 22.546C9.79381 22.8341 10.2038 22.843 10.6973 22.5542C13.5696 20.8727 16.4515 19.2076 19.3394 17.5535C19.8122 17.2831 20.0057 16.9344 19.9991 16.3929C19.9784 14.7321 19.9917 13.0707 19.9917 11.4099ZM9.87434 1.96117C10.0273 1.87104 10.1322 1.95895 10.2445 2.02396C12.5834 3.37737 14.9208 4.73226 17.2657 6.09011C17.2479 6.20462 17.1393 6.22161 17.0669 6.26446C16.4767 6.61167 15.8664 6.92786 15.2961 7.30389C14.9548 7.52848 14.7007 7.52109 14.3498 7.31424C12.2125 6.05243 10.0605 4.81648 7.91366 3.57167C7.79916 3.50518 7.68465 3.43721 7.50956 3.33453C8.33624 2.85507 9.1075 2.41255 9.87434 1.96117ZM9.11932 20.1613C9.11932 20.2064 9.11489 20.2514 9.11193 20.2995C8.95384 20.3187 8.86593 20.2182 8.76619 20.1606C6.54991 18.8832 4.33732 17.5978 2.11734 16.3264C1.87207 16.186 1.78859 16.0338 1.78933 15.7494C1.80189 13.0795 1.79672 10.4104 1.79672 7.7405C1.93339 7.68731 2.0117 7.79222 2.09887 7.84245C4.358 9.14489 6.61492 10.4518 8.87405 11.7542C9.03363 11.8465 9.12523 11.9389 9.12449 12.1494C9.11637 14.8201 9.11932 17.4907 9.11932 20.1613ZM10.1639 10.2641C10.0612 10.324 9.98072 10.3417 9.86547 10.2752C7.50661 8.90257 5.14552 7.53513 2.78518 6.16472C2.76523 6.15364 2.75415 6.12705 2.73199 6.09897C3.67391 5.55229 4.61435 5.00634 5.5548 4.4604C5.6501 4.40499 5.73062 4.36953 5.85104 4.43971C8.20917 5.81529 10.5717 7.18421 12.9321 8.55536C12.952 8.56644 12.9631 8.59303 12.9875 8.62406C12.0456 9.17074 11.1036 9.71595 10.1639 10.2641ZM18.0118 16.2577C15.6973 17.5845 13.3886 18.9217 11.0778 20.2559C11.0379 20.2788 10.9965 20.2987 10.902 20.3482C10.902 17.5609 10.9027 14.8304 10.8997 12.0999C10.8997 11.9647 10.9322 11.879 11.0601 11.8052C13.4137 10.4495 15.7645 9.08874 18.1167 7.73016C18.1337 7.72056 18.1603 7.7272 18.2054 7.72499C18.2054 8.40022 18.2054 9.07323 18.2054 9.74624C18.2054 11.7764 18.2046 13.8057 18.2068 15.8359C18.2076 16.0117 18.2009 16.1491 18.0118 16.2577Z"
                  fill="#090808"
                ></path>
                <path
                  d="M6.67845 11.7062C5.92861 11.2474 5.1736 10.7953 4.3979 10.3823C4.01078 10.1762 3.53945 10.3705 3.31561 10.7421C3.08068 11.1329 3.13905 11.6486 3.52172 11.8901C4.26492 12.3592 5.02067 12.8165 5.80671 13.2066C6.36596 13.4836 7.00351 13.0005 6.99982 12.374C6.9976 12.1007 6.90525 11.8443 6.67845 11.7062Z"
                  fill="#090808"
                ></path>
              </svg>