<svg
                width="20"
                height="20"
                viewBox="0 0 20 20"
                fill="none"
                xmlns="http://www.w3.org/2000/svg"
              >
                <path
                  d="M10.0124 5.71648e-06C4.49372 -0.00582603 0.0175476 4.45109 5.11597e-05 9.96938C-0.0174453 15.5015 4.45508 19.9942 9.98761 20C15.5077 20.0058 19.9832 15.5496 20 10.0306C20.0167 4.49847 15.5435 0.00583747 10.0124 5.71648e-06ZM10.8289 17.7555C6.3622 18.2126 2.67701 14.9337 2.24251 10.8376C1.77375 6.41493 5.08933 2.40196 9.69746 2.20149C13.8259 2.05132 17.3354 5.10862 17.756 9.18137C18.2175 13.647 14.9223 17.3371 10.8289 17.7555Z"
                  fill="#090808"
                ></path>
                <path
                  d="M14.1314 7.34802C12.3767 6.12189 10.4477 5.64879 8.35393 6.20062C6.19239 6.77067 4.62792 8.17904 3.36088 9.96283C3.25372 10.1137 3.28142 10.1735 3.43014 10.261C3.93025 10.5548 4.42452 10.8587 4.91296 11.1715C5.06825 11.2713 5.14406 11.2582 5.25196 11.1007C5.59314 10.6043 5.98244 10.1473 6.45776 9.74778C6.73916 12.0171 8.51577 13.0471 10.0066 13.0413C11.5274 13.0354 13.2719 11.9857 13.5445 9.71352C14.0126 10.1385 14.4084 10.562 14.7183 11.0548C14.8407 11.2495 14.9348 11.2429 15.1112 11.135C15.5749 10.8514 16.0429 10.5744 16.5233 10.3208C16.769 10.191 16.7413 10.0817 16.6028 9.88556C15.9139 8.90728 15.1141 8.03544 14.1314 7.34802ZM10.0095 10.842C9.26958 10.8449 8.66012 10.2464 8.65793 9.51524C8.65575 8.787 9.27323 8.17758 10.0088 8.18269C10.7298 8.18779 11.3305 8.77898 11.3436 9.49629C11.356 10.2209 10.7437 10.839 10.0095 10.842Z"
                  fill="#090808"
                ></path>
              </svg>