<svg width="27" height="24" viewBox="0 0 27 22" fill="none" xmlns="http://www.w3.org/2000/svg">
<path fill-rule="evenodd" clip-rule="evenodd" d="M10.8284 0.067304C10.6807 0.0955849 10.4507 0.256559 10.317 0.425171C10.0855 0.717048 10.0737 0.904514 10.0686 4.38485L10.0633 8.0381L5.07069 14.3002C2.32469 17.7443 0.0499972 20.673 0.0157053 20.8083C-0.0184663 20.9435 0.0049966 21.1886 0.0679252 21.3528C0.331431 22.0401 -0.512509 21.9995 13.509 21.9995C25.9041 21.9995 26.4223 21.9908 26.6589 21.7783C26.972 21.4974 27.0952 20.9536 26.9195 20.6281C26.8448 20.4897 25.2146 18.4057 23.2969 15.9972C20.9214 13.0135 19.698 11.5708 19.4584 11.4701C18.908 11.239 18.6032 11.4387 17.6005 12.6879L16.6823 13.8316L14.3362 10.8799L11.9902 7.9282L12.0247 6.9688L12.0593 6.00951L14.2251 5.94281C15.4162 5.90617 16.4071 5.86596 16.4271 5.85331C16.447 5.84078 16.5417 5.64425 16.6376 5.41669C16.766 5.1118 16.812 4.48234 16.812 3.0263C16.812 0.660129 16.7144 0.305842 16.0094 0.111694C15.5727 -0.00858884 11.4107 -0.0442683 10.8284 0.067304ZM14.7665 3.0263V4.04059H13.3828H11.9991V3.0263V2.012H13.3828H14.7665V3.0263ZM12.1675 11.3316C12.7456 12.06 13.1955 12.6788 13.1674 12.7066C13.1394 12.7344 12.1627 12.7425 10.997 12.7246L8.87781 12.6919L9.92702 11.3538C10.5042 10.6179 11.0079 10.0137 11.0465 10.0113C11.085 10.0089 11.5895 10.6031 12.1675 11.3316ZM21.5579 16.9877L23.9328 19.971L21.5154 20.0033C20.1859 20.0211 18.025 20.0211 16.7132 20.0033L14.3283 19.971L16.7297 16.9545C18.0505 15.2953 19.1427 13.9529 19.1571 13.9712C19.1713 13.9895 20.2516 15.347 21.5579 16.9877ZM15.1048 15.0141C15.2496 15.2082 15.3681 15.3957 15.3681 15.4306C15.3681 15.5439 11.8351 19.9354 11.7038 19.9854C11.6339 20.012 9.66387 20.0196 7.32613 20.0023L3.0755 19.971L4.07249 18.718C4.62092 18.0289 5.57376 16.8342 6.19005 16.0629L7.31061 14.6608H11.0761H14.8416L15.1048 15.0141Z" fill="#4635ff"/>
</svg>
