<svg width="31" height="24" viewBox="0 0 31 29" fill="none" xmlns="http://www.w3.org/2000/svg">
<path fill-rule="evenodd" clip-rule="evenodd" d="M11.7244 0.0229585C9.01391 0.243591 7.62355 0.821068 6.18205 2.32497C5.25013 3.29723 4.63828 4.23546 2.52074 7.93919C0.481427 11.506 0 12.7599 0 14.5044C0 16.2495 0.482752 17.5065 2.52133 21.0697C4.65378 24.7968 5.25053 25.712 6.18205 26.6839C7.44007 27.9964 8.80162 28.6514 10.8018 28.9063C11.7815 29.0312 19.2185 29.0312 20.1982 28.9063C22.1783 28.6539 23.5588 27.9957 24.7879 26.7179C25.7146 25.7544 26.3848 24.7287 28.4785 21.0697C30.5171 17.5071 31 16.2497 31 14.5044C31 12.7593 30.5172 11.5024 28.4787 7.93919C26.3563 4.22963 25.7647 3.3221 24.8234 2.33187C23.6124 1.05788 22.258 0.388225 20.3355 0.11275C19.8059 0.0368848 12.4906 -0.0393782 11.7244 0.0229585ZM19.4237 2.16999C20.8624 2.28936 21.625 2.5155 22.463 3.07129C23.5163 3.76979 24.168 4.68866 26.533 8.80945C27.7337 10.9018 28.3454 12.1032 28.6331 12.9342C28.8321 13.5094 28.8437 13.5957 28.8437 14.5044C28.8437 15.4189 28.833 15.4969 28.6264 16.096C28.288 17.077 27.0572 19.3763 25.2185 22.4623C23.1859 25.8737 22.2145 26.6074 19.4237 26.8389C18.4155 26.9225 12.5845 26.9225 11.5763 26.8389C9.72029 26.6849 8.79254 26.3054 7.78067 25.2864C7.00375 24.5038 6.44601 23.6477 4.46705 20.1994C3.26626 18.107 2.65461 16.9057 2.36693 16.0747C2.16788 15.4994 2.15629 15.4132 2.15629 14.5044C2.15629 13.5957 2.16788 13.5094 2.36693 12.9342C2.65461 12.1032 3.26626 10.9018 4.46705 8.80945C6.44601 5.36117 7.00375 4.50504 7.78067 3.72251C8.7673 2.72884 9.75752 2.3139 11.4801 2.17232C12.3894 2.09758 18.5293 2.09579 19.4237 2.16999ZM22.1571 9.49177C22.0478 9.54038 21.8929 9.65126 21.813 9.7382C21.7331 9.82508 21.1586 10.9312 20.5366 12.1963C19.2906 14.73 19.1923 14.8701 18.5213 15.0697C18.107 15.1928 17.9913 15.1922 17.5615 15.0644C17.0687 14.9179 16.7448 14.5943 16.3777 13.8819C15.677 12.5218 14.4789 11.7651 13.016 11.7586C11.9118 11.7537 11.1366 12.0575 10.3492 12.8034L9.84873 13.2776L8.64218 15.7313C7.97859 17.0808 7.41609 18.2681 7.39224 18.3698C7.2379 19.0268 7.9419 19.7139 8.63588 19.5836C9.11486 19.4936 9.22846 19.3218 10.4467 16.846C11.4375 14.8326 11.6336 14.479 11.8734 14.2735C12.5547 13.6896 13.5471 13.7372 14.1502 14.3826C14.264 14.5043 14.4869 14.8576 14.6455 15.1676C15.4798 16.798 17.2802 17.5989 19.0557 17.1294C19.6766 16.9653 20.1526 16.6801 20.6855 16.1532L21.2012 15.6433L22.4028 13.2005C23.4251 11.1221 23.6046 10.7124 23.6056 10.4545C23.6083 9.7126 22.8273 9.19349 22.1571 9.49177Z" fill="#4635ff"/>
</svg>
