<svg width="26" height="24" viewBox="0 0 26 27" fill="none" xmlns="http://www.w3.org/2000/svg">
<path fill-rule="evenodd" clip-rule="evenodd" d="M18.5172 0.0381556C16.5596 0.42613 15.169 1.85922 14.8366 3.83113C14.5794 5.35696 15.4397 7.5335 17.5686 10.7423C18.3546 11.927 18.6416 12.1313 19.432 12.0682C20.115 12.0139 20.3927 11.7232 21.5755 9.8247C22.7464 7.94541 23.4364 6.43366 23.6847 5.20357C23.8922 4.17625 23.6469 2.9804 23.0364 2.04183C22.4043 1.07009 21.5114 0.429791 20.3416 0.109444C19.9594 0.00482016 18.8953 -0.0367929 18.5172 0.0381556ZM11.7228 0.937818C7.83035 1.31678 4.35417 3.42362 2.14594 6.74207C1.10203 8.31086 0.410094 10.1235 0.103739 12.0918C-0.0346263 12.9808 -0.0345702 14.901 0.103851 15.8004C0.874621 20.808 4.23011 24.8004 8.97868 26.3597C12.8009 27.615 17.0149 27.0034 20.3408 24.711C22.3572 23.3211 23.9853 21.3368 24.9386 19.1072C26.3891 15.7147 26.3516 11.9221 24.834 8.53886C24.6876 8.21232 24.5149 7.85926 24.4504 7.75429L24.3331 7.56346L23.9291 8.3737C23.7069 8.81934 23.3737 9.45001 23.1886 9.7752C22.6494 10.7223 21.585 12.2969 21.2714 12.6111C20.7514 13.1324 20.0175 13.4353 19.2747 13.4353C18.5367 13.4353 17.8025 13.134 17.2851 12.6188C17.1295 12.464 16.7589 11.9699 16.4615 11.5208C15.064 9.41093 14.2392 7.82389 13.7731 6.34858L13.5924 5.77619L13.4559 5.9597C13.0468 6.51002 12.7508 7.23247 12.4809 8.3393C12.1861 9.54821 12.2024 10.3926 12.5341 11.0964C12.8641 11.7968 13.3877 12.2171 14.8529 12.9581C16.0048 13.5407 16.52 13.8926 17.0911 14.4873C17.53 14.9442 17.7942 15.3134 18.6481 16.6632C19.2345 17.5901 19.5959 17.9111 20.4595 18.2718C21.0573 18.5216 21.3 18.7006 21.5266 19.0591C21.6956 19.3265 21.9258 19.9857 21.9929 20.3939C22.029 20.6139 22.0154 20.6424 21.6702 21.0697C20.6671 22.3114 19.3338 23.3642 17.86 24.0786C14.4948 25.7096 10.5042 25.5475 7.32654 23.6505L6.88053 23.3843L6.9647 23.1821C7.14009 22.7607 7.45711 22.5334 8.37612 22.17C9.62988 21.6743 10.663 20.8901 11.4548 19.833C12.4509 18.5031 12.4471 17.223 11.4441 16.2163C11.0864 15.8574 10.4183 15.4385 9.88815 15.2409C8.39969 14.686 7.73188 14.1057 7.51698 13.1802C7.4175 12.752 7.43596 12.4336 7.59031 11.915C7.7321 11.4384 7.71572 10.5818 7.55474 10.0592C7.23413 9.01823 6.4683 7.94175 5.40666 7.03961C5.15445 6.82535 4.88288 6.59454 4.80321 6.52674L4.65828 6.40348L4.99493 6.05571C7.07226 3.90951 10.016 2.68016 13.0777 2.68016C13.6932 2.68016 13.7321 2.6734 13.7611 2.56213C13.8139 2.35981 14.2156 1.55959 14.3982 1.2933C14.494 1.1536 14.5582 1.0251 14.541 1.00781C14.4296 0.89598 12.6151 0.850932 11.7228 0.937818ZM20.1965 2.44478C20.7028 2.68258 21.0303 3.00591 21.2814 3.5158C21.4794 3.91785 21.491 3.97106 21.491 4.48207C21.491 4.99309 21.4794 5.0463 21.2814 5.44835C21.029 5.96088 20.7042 6.2801 20.1825 6.52809C19.8436 6.68925 19.7567 6.70631 19.2747 6.70631C18.7927 6.70631 18.7058 6.68925 18.3668 6.52809C17.8452 6.2801 17.5203 5.96088 17.2679 5.44835C17.0702 5.04675 17.0584 4.99263 17.0584 4.485C17.0584 3.99792 17.0752 3.9116 17.236 3.57098C17.4614 3.09336 17.7824 2.74373 18.2011 2.51979C18.6431 2.2834 18.8849 2.2299 19.4009 2.25457C19.7376 2.27067 19.917 2.31352 20.1965 2.44478Z" fill="#4635ff"/>
</svg>
