<svg width="22" height="24" viewBox="0 0 22 22" fill="none" xmlns="http://www.w3.org/2000/svg">
<path fill-rule="evenodd" clip-rule="evenodd" d="M5.06394 0.0307274C4.87061 0.0898632 4.59695 0.374102 4.54167 0.573228C4.51659 0.663459 4.49599 0.952988 4.49586 1.21658L4.4956 1.69586L3.66746 1.7153C2.9258 1.73272 2.79889 1.74687 2.45215 1.85069C1.34911 2.18095 0.466424 3.06183 0.120112 4.17793L0 4.565V11.8548V19.1447L0.120112 19.5317C0.465692 20.6456 1.33797 21.5176 2.45215 21.8631L2.83933 21.9832H6.5637H10.288L10.4625 21.8678C10.731 21.6902 10.8411 21.4799 10.8411 21.1445C10.8411 20.8092 10.731 20.5989 10.4625 20.4213L10.2882 20.3059L6.6713 20.2844L3.05443 20.2629L2.80698 20.163C2.32885 19.97 1.96684 19.5914 1.79811 19.1081C1.72493 18.8984 1.7208 18.511 1.7208 11.8548C1.7208 5.19868 1.72493 4.81122 1.79811 4.6016C1.96744 4.11647 2.33289 3.73538 2.80698 3.54959C3.01924 3.46641 3.15634 3.45007 3.77071 3.43471L4.48695 3.41678L4.50205 3.99089C4.51556 4.50548 4.52769 4.58203 4.6192 4.72916C4.67534 4.81948 4.79979 4.94528 4.89569 5.00871C5.04097 5.10484 5.11784 5.1241 5.356 5.1241C5.59416 5.1241 5.67104 5.10484 5.81632 5.00871C5.91221 4.94528 6.03667 4.81948 6.09281 4.72916C6.18418 4.58221 6.19644 4.50531 6.20986 3.99515L6.22484 3.42529H8.15231H10.0798L10.0948 3.99837C10.1088 4.53541 10.117 4.58242 10.2251 4.74572C10.4035 5.01504 10.6129 5.1241 10.9518 5.1241C11.1865 5.1241 11.2642 5.10449 11.4089 5.00871C11.5048 4.94528 11.6293 4.81948 11.6854 4.72916C11.7768 4.58221 11.7891 4.50531 11.8025 3.99515L11.8174 3.42529H13.7664H15.7154L15.7304 3.99837C15.7444 4.53541 15.7526 4.58242 15.8608 4.74572C16.0391 5.01504 16.2486 5.1241 16.5874 5.1241C16.8221 5.1241 16.8998 5.10449 17.0446 5.00871C17.1405 4.94528 17.2649 4.81948 17.3211 4.72916C17.4126 4.58203 17.4247 4.50548 17.4382 3.99098L17.4533 3.41695L18.191 3.43445C18.8179 3.44929 18.9636 3.46576 19.1602 3.54408C19.6372 3.73413 19.9743 4.06654 20.1625 4.53266L20.2625 4.78004L20.284 7.55405L20.3055 10.3281L20.4076 10.4922C20.4637 10.5825 20.5882 10.7083 20.6841 10.7718C20.8288 10.8675 20.9065 10.8872 21.1412 10.8872C21.4801 10.8872 21.6895 10.778 21.8678 10.5086L21.9833 10.3343V7.44967V4.565L21.8632 4.17793C21.5169 3.06192 20.6344 2.18121 19.5311 1.8506C19.1824 1.74605 19.06 1.73263 18.2984 1.71535L17.4529 1.69616L17.438 1.12747C17.4241 0.595162 17.4158 0.547682 17.3077 0.384553C17.13 0.116141 16.9197 0.00616988 16.5842 0.00616988C16.2488 0.00616988 16.0385 0.116141 15.8608 0.384553C15.7526 0.547854 15.7444 0.594861 15.7304 1.1319L15.7154 1.70498H13.7664H11.8174L11.8025 1.13513C11.7891 0.624967 11.7768 0.548069 11.6854 0.401111C11.6293 0.310794 11.5048 0.184997 11.4089 0.12156C11.2642 0.0257815 11.1865 0.00616988 10.9518 0.00616988C10.6129 0.00616988 10.4035 0.115238 10.2251 0.384553C10.117 0.547854 10.1088 0.594861 10.0948 1.1319L10.0798 1.70498H8.15231H6.22484L6.20986 1.1319C6.19584 0.594861 6.18762 0.547854 6.07947 0.384553C6.01602 0.288731 5.89534 0.167836 5.81137 0.115969C5.63563 0.00737409 5.27474 -0.0337844 5.06394 0.0307274ZM5.06394 8.20222C4.85895 8.26493 4.59566 8.5465 4.53647 8.76631C4.43348 9.14865 4.5865 9.55052 4.91216 9.75291C5.15617 9.90456 5.57631 9.89836 5.81632 9.73958C6.08485 9.56191 6.19489 9.35169 6.19489 9.01632C6.19489 8.68524 6.08506 8.47085 5.82858 8.30118C5.64406 8.17908 5.28949 8.13319 5.06394 8.20222ZM8.80669 8.20222C8.6017 8.26493 8.33841 8.5465 8.27922 8.76631C8.17623 9.14865 8.32925 9.55052 8.65491 9.75291C8.89892 9.90456 9.31906 9.89836 9.55906 9.73958C9.8276 9.56191 9.93764 9.35169 9.93764 9.01632C9.93764 8.68524 9.82781 8.47085 9.57133 8.30118C9.38681 8.17908 9.03224 8.13319 8.80669 8.20222ZM12.5494 8.20222C12.3444 8.26493 12.0812 8.5465 12.022 8.76631C11.919 9.14865 12.072 9.55052 12.3977 9.75291C12.6417 9.90456 13.0618 9.89836 13.3018 9.73958C13.5703 9.56191 13.6804 9.35169 13.6804 9.01632C13.6804 8.68524 13.5706 8.47085 13.3141 8.30118C13.1296 8.17908 12.775 8.13319 12.5494 8.20222ZM16.2922 8.20222C16.0872 8.26493 15.8239 8.5465 15.7647 8.76631C15.6617 9.14865 15.8147 9.55052 16.1404 9.75291C16.3844 9.90456 16.8046 9.89836 17.0446 9.73958C17.3131 9.56191 17.4231 9.35169 17.4231 9.01632C17.4231 8.68524 17.3133 8.47085 17.0568 8.30118C16.8723 8.17908 16.5177 8.13319 16.2922 8.20222ZM16.0465 11.6594C14.9115 11.8378 13.8751 12.3676 13.0894 13.1712C12.68 13.5898 12.3958 13.9959 12.1291 14.5428C11.4219 15.9934 11.4219 17.608 12.1291 19.0586C12.6545 20.1364 13.4642 20.9464 14.5386 21.4689C15.9942 22.177 17.6045 22.177 19.0601 21.4689C20.1345 20.9464 20.9442 20.1364 21.4696 19.0586C22.1768 17.608 22.1768 15.9934 21.4696 14.5428C20.9442 13.4651 20.1345 12.6551 19.0601 12.1325C18.1065 11.6687 17.0465 11.5022 16.0465 11.6594ZM5.06394 11.9439C4.85895 12.0066 4.59566 12.2882 4.53647 12.508C4.43348 12.8903 4.5865 13.2922 4.91216 13.4946C5.15617 13.6462 5.57631 13.64 5.81632 13.4813C6.08485 13.3036 6.19489 13.0934 6.19489 12.758C6.19489 12.4269 6.08506 12.2125 5.82858 12.0429C5.64406 11.9208 5.28949 11.8749 5.06394 11.9439ZM8.80669 11.9439C8.6017 12.0066 8.33841 12.2882 8.27922 12.508C8.17623 12.8903 8.32925 13.2922 8.65491 13.4946C8.89892 13.6462 9.31906 13.64 9.55906 13.4813C9.8276 13.3036 9.93764 13.0934 9.93764 12.758C9.93764 12.4269 9.82781 12.2125 9.57133 12.0429C9.38681 11.9208 9.03224 11.8749 8.80669 11.9439ZM17.4086 13.3788C18.8814 13.6667 19.9343 14.7193 20.2222 16.1917C20.6284 18.2683 18.9423 20.2844 16.7993 20.2844C15.7929 20.2844 14.747 19.7888 14.1195 19.0146C13.0529 17.6988 13.0529 15.9026 14.1195 14.5869C14.8922 13.6336 16.219 13.1463 17.4086 13.3788ZM16.5073 14.2233C16.3055 14.2851 16.039 14.5677 15.9815 14.781C15.9504 14.8964 15.9383 15.3333 15.947 16.023L15.9605 17.0868L16.0759 17.2611C16.1393 17.3569 16.2652 17.4812 16.3555 17.5373C16.5147 17.6363 16.5472 17.6394 17.4231 17.6394C18.2991 17.6394 18.3315 17.6363 18.4908 17.5373C18.5811 17.4812 18.7069 17.3568 18.7704 17.2609C18.9292 17.021 18.9354 16.601 18.7837 16.357C18.6148 16.0854 18.3989 15.9723 18.0056 15.9495L17.6677 15.93L17.653 15.3439C17.6397 14.8164 17.628 14.7415 17.5362 14.5937C17.3333 14.2674 16.8875 14.107 16.5073 14.2233ZM5.06394 15.6856C4.85895 15.7483 4.59566 16.0299 4.53647 16.2497C4.43348 16.632 4.5865 17.0339 4.91216 17.2363C5.15617 17.3879 5.57631 17.3817 5.81632 17.2229C6.08485 17.0453 6.19489 16.8351 6.19489 16.4997C6.19489 16.1686 6.08506 15.9542 5.82858 15.7845C5.64406 15.6624 5.28949 15.6166 5.06394 15.6856ZM8.80669 15.6856C8.6017 15.7483 8.33841 16.0299 8.27922 16.2497C8.17623 16.632 8.32925 17.0339 8.65491 17.2363C8.89892 17.3879 9.31906 17.3817 9.55906 17.2229C9.8276 17.0453 9.93764 16.8351 9.93764 16.4997C9.93764 16.1686 9.82781 15.9542 9.57133 15.7845C9.38681 15.6624 9.03224 15.6166 8.80669 15.6856Z" fill="#4635ff"/>
</svg>
