<svg width="30" height="24" viewBox="0 0 30 26" fill="none" xmlns="http://www.w3.org/2000/svg">
<path fill-rule="evenodd" clip-rule="evenodd" d="M10.4307 0.0908031C10.3185 0.1493 10.1667 0.287208 10.0934 0.39731C9.96627 0.588473 9.96029 0.649503 9.96029 1.75824C9.96029 2.86698 9.96627 2.92801 10.0934 3.11918C10.4702 3.68548 11.2736 3.6473 11.5898 3.04807C11.721 2.79947 11.7257 2.74534 11.7086 1.68873C11.6923 0.685026 11.6801 0.57404 11.5698 0.425823C11.2731 0.0271216 10.8129 -0.108194 10.4307 0.0908031ZM9.72565 5.43757C8.22878 5.68558 6.96636 6.34083 5.876 7.43567C4.49609 8.82129 3.80197 10.4914 3.80127 12.4279C3.80057 14.2594 4.48201 15.9613 5.74507 17.2825C6.0091 17.5588 6.40353 17.9175 6.62156 18.0798L7.01793 18.375L6.76475 18.9178C6.39068 19.7198 6.29829 20.1435 6.29946 21.0512C6.30029 21.6601 6.32697 21.911 6.42969 22.2759C6.85438 23.7837 7.79376 24.9175 9.14551 25.5537C10.1579 26.0301 9.58059 25.9996 17.586 25.9996C24.0097 25.9996 24.7539 25.99 25.1265 25.9022C27.4925 25.3445 29.2422 23.6341 29.8521 21.2829C30.0496 20.5215 30.0493 19.165 29.8515 18.4003C29.5481 17.2273 29.031 16.3106 28.2056 15.4824C27.0296 14.3023 25.5037 13.658 23.8849 13.658H23.3946L23.1647 13.2015C22.3309 11.5456 20.8496 10.3066 19.1046 9.80567C18.5852 9.65663 17.8601 9.5351 17.4792 9.53333C17.2718 9.53239 17.2545 9.51572 17.0351 9.10623C16.0586 7.28404 14.3585 5.97877 12.3653 5.52093C11.699 5.36782 10.3951 5.3267 9.72565 5.43757ZM0.470227 5.85872C0.0316293 6.08346 -0.132793 6.65506 0.117683 7.08433C0.229957 7.27679 0.411685 7.40616 1.22001 7.86913C2.13023 8.39042 2.20432 8.422 2.46407 8.39867C2.98573 8.35189 3.32572 7.92751 3.2565 7.40946C3.20687 7.03768 3.03811 6.88145 2.09076 6.33017C1.09882 5.75291 0.829634 5.67462 0.470227 5.85872ZM20.4721 5.82596C20.2035 5.93412 18.7846 6.7849 18.6263 6.93258C18.2742 7.26106 18.2961 7.84073 18.6731 8.17316C19.1019 8.5513 19.3352 8.50865 20.4753 7.84386C21.4837 7.25582 21.6335 7.10112 21.6335 6.64775C21.6335 6.03751 21.0216 5.60452 20.4721 5.82596ZM11.7484 7.20887C13.0861 7.44315 14.3346 8.24521 15.1309 9.38193L15.4162 9.78923L14.932 9.97227C14.0596 10.3021 13.3708 10.7429 12.6979 11.4019C11.5605 12.5159 10.9038 13.8623 10.7086 15.4808L10.6344 16.0959L10.2534 16.1666C9.74542 16.2607 9.00473 16.5534 8.62807 16.8087C8.46001 16.9226 8.29272 17.0159 8.25641 17.0159C8.1141 17.0159 7.29392 16.3861 6.96103 16.0213C5.03858 13.9143 5.09243 10.7189 7.08433 8.70494C7.57771 8.20603 7.88204 7.98271 8.47268 7.68592C9.49577 7.17187 10.6104 7.00958 11.7484 7.20887ZM17.9967 11.3629C19.8024 11.649 21.3095 12.9389 21.8686 14.6769C22.0268 15.1686 22.1549 15.3316 22.4812 15.4568C22.7023 15.5415 22.7971 15.5467 23.116 15.4909C25.8794 15.0076 28.4155 17.2763 28.2438 20.078C28.1746 21.2064 27.7597 22.1201 26.9446 22.9387C26.3725 23.5131 25.8682 23.8232 25.0651 24.0939L24.6545 24.2323L17.85 24.2493C12.9408 24.2615 10.9336 24.2475 10.6438 24.1988C9.41135 23.9918 8.37988 22.9587 8.1036 21.6544C7.81646 20.2989 8.48524 18.8822 9.7199 18.2306C10.2465 17.9527 10.7002 17.8406 11.2983 17.8406C11.8657 17.8406 12.1228 17.7464 12.3225 17.4652C12.4444 17.2935 12.4537 17.2149 12.4593 16.309C12.4658 15.2696 12.5345 14.9012 12.8598 14.1624C13.7214 12.2061 15.8829 11.0281 17.9967 11.3629ZM2.01192 16.5158C1.14687 16.9829 0.24908 17.5465 0.150826 17.684C-0.243836 18.2362 0.185904 19.0777 0.862542 19.0777C1.17033 19.0777 2.94971 18.0738 3.12897 17.799C3.372 17.4265 3.26805 16.8476 2.91082 16.5847C2.69865 16.4285 2.23875 16.3933 2.01192 16.5158Z" fill="#4635ff"/>
</svg>
