<svg id="Layer_1" data-name="Layer 1" xmlns="http://www.w3.org/2000/svg" width="28" height="16.48" viewBox="0 0 28 16.48"><defs><style>.cls-1{fill:#73a802;}.cls-2{fill:#a8c902;}.cls-3{fill:#fc8203;}.cls-4{fill:#dbdf01;}.cls-5{fill:#fc5001;}.cls-6{fill:#d1d2d4;}</style></defs><path class="cls-1" d="M2.7,15.46H0a13.81,13.81,0,0,1,.85-4.81l2.5.91A11.24,11.24,0,0,0,2.7,15.46Z"/><path class="cls-2" d="M3.7,10.82,1.27,9.72a14,14,0,0,1,6.9-7L9.29,5.19A11.27,11.27,0,0,0,3.7,10.82Z"/><path class="cls-3" d="M24.3,10.81a11.35,11.35,0,0,0-5.59-5.63l1.11-2.42a14,14,0,0,1,6.91,7Z"/><path class="cls-4" d="M10,4.88,9.1,2.38a14.09,14.09,0,0,1,9.79,0L18,4.87A11.45,11.45,0,0,0,10,4.88Z"/><path class="cls-5" d="M28,15.46H25.3a11.24,11.24,0,0,0-.69-3.9l2.5-.92A13.82,13.82,0,0,1,28,15.46Z"/><path class="cls-6" d="M4.2,7.22a0,0,0,0,0,0,0L7.41,9l7.27,4a1.38,1.38,0,0,1,.79,1.36,1.33,1.33,0,0,1-.88,1.24,1.4,1.4,0,0,1-1.56-.3L10.39,12.9l-6-5.42L4.19,7.3Z"/></svg>