<svg
                width="20"
                height="20"
                viewBox="0 0 20 20"
                fill="none"
                xmlns="http://www.w3.org/2000/svg"
              >
                <path
                  d="M19.9078 1.06472C19.6737 0.506379 19.285 0.135581 18.6704 0.0351652C18.6563 0.0328208 18.645 0.0121125 18.6325 0C12.8513 0 7.07015 0 1.289 0C1.27611 0.052357 1.22844 0.0375095 1.19444 0.0484498C0.60445 0.232481 0.21607 0.615781 0.0441518 1.21242C0.0355559 1.2425 0.0414168 1.27884 0 1.289C0 7.09633 0 12.9033 0 18.7106C0.029695 18.7184 0.0343837 18.7423 0.0414168 18.768C0.20513 19.3772 0.598589 19.7628 1.19483 19.9508C1.22883 19.9613 1.2765 19.9469 1.28939 19.9996C7.07055 19.9996 12.8517 19.9996 18.6329 19.9996C18.7212 19.9281 18.8368 19.9512 18.9361 19.9113C19.4155 19.7187 19.7472 19.387 19.9222 18.8985C19.9449 18.8353 19.934 18.7563 20 18.7106C20 12.9166 20 7.12212 20 1.32807C19.9344 1.25266 19.9437 1.15068 19.9078 1.06472ZM9.2293 18.8821C6.73648 18.8763 4.24405 18.8782 1.75123 18.8782C1.26985 18.8782 1.12333 18.7317 1.12333 18.2499C1.12333 12.7505 1.12333 7.25106 1.12333 1.75162C1.12333 1.2722 1.27142 1.1249 1.75279 1.1249C4.24561 1.1245 6.73804 1.12685 9.23086 1.1206C9.40161 1.12021 9.44537 1.15928 9.44498 1.33315C9.43872 4.22295 9.44068 7.11235 9.44068 10.0021C9.44068 12.8919 9.43872 15.7814 9.44498 18.6711C9.44537 18.8466 9.39809 18.8825 9.2293 18.8821ZM18.3195 18.8743C15.7872 18.8755 13.2549 18.8732 10.7226 18.879C10.5605 18.8794 10.5507 18.8165 10.5507 18.6864C10.5539 15.7896 10.5531 12.8927 10.5531 9.9959C10.5531 7.11196 10.5542 4.22842 10.5496 1.34448C10.5492 1.17647 10.5773 1.11552 10.766 1.11591C13.2592 1.12333 15.7524 1.1206 18.2456 1.12099C18.7251 1.12099 18.8724 1.26946 18.8724 1.75044C18.8724 7.2706 18.8724 12.7907 18.8724 18.3109C18.8724 18.6969 18.7024 18.8743 18.3195 18.8743Z"
                  fill="#090808"
                ></path>
                <path
                  d="M6.66693 10.4062C6.42546 10.6234 6.20353 10.8621 5.97027 11.0888C5.93705 11.1208 5.91635 11.1825 5.83859 11.1626C5.83859 11.0931 5.83859 11.0219 5.83859 10.9512C5.83859 9.83218 5.83898 8.71315 5.83781 7.59451C5.83781 7.49722 5.83507 7.39875 5.81906 7.30303C5.77998 7.07328 5.58267 6.89628 5.35253 6.87323C4.98877 6.83728 4.72581 7.07133 4.72464 7.44564C4.72151 8.62953 4.72347 9.81382 4.72307 10.9977C4.72307 11.0598 4.72307 11.1224 4.72307 11.181C4.70002 11.1853 4.69182 11.1892 4.68947 11.1868C4.43902 10.9407 4.19169 10.6914 3.93811 10.4484C3.68922 10.2096 3.34382 10.2096 3.12071 10.4402C2.90269 10.6652 2.90699 11.0004 3.14728 11.2435C3.7193 11.8214 4.29484 12.3957 4.87468 12.9658C5.10598 13.1932 5.4338 13.2041 5.66433 12.9791C6.26448 12.393 6.85799 11.7995 7.44408 11.1985C7.65702 10.9801 7.63514 10.63 7.42689 10.423C7.22527 10.2225 6.89159 10.2042 6.66693 10.4062Z"
                  fill="#090808"
                ></path>
                <path
                  d="M15.1593 7.07015C14.8717 6.78453 14.5607 6.78844 14.27 7.07758C13.7164 7.6285 13.1643 8.18098 12.613 8.73425C12.3516 8.99682 12.3324 9.3301 12.5598 9.56649C12.7868 9.80249 13.1412 9.78764 13.4073 9.52468C13.6429 9.29142 13.8731 9.05269 14.1055 8.8163C14.1216 8.82177 14.1372 8.82724 14.1532 8.83271C14.1532 8.90187 14.1532 8.97064 14.1532 9.0398C14.1532 10.1721 14.1532 11.3048 14.1528 12.4371C14.1528 12.5614 14.1567 12.6845 14.2071 12.8005C14.3146 13.0486 14.5779 13.1787 14.8506 13.1201C15.0964 13.0674 15.2718 12.8396 15.2722 12.5594C15.2738 11.3748 15.273 10.1905 15.273 9.0058C15.273 8.9386 15.273 8.871 15.273 8.76004C15.5461 9.03667 15.7817 9.27814 16.0209 9.51648C16.2897 9.78412 16.632 9.80522 16.8664 9.57235C17.1036 9.33714 17.086 8.99877 16.816 8.72683C16.2658 8.17278 15.7134 7.62029 15.1593 7.07015Z"
                  fill="#090808"
                ></path>
              </svg>