<svg width="24" height="24" viewBox="0 0 24 24" fill="none" xmlns="http://www.w3.org/2000/svg">
<path fill-rule="evenodd" clip-rule="evenodd" d="M0.363295 0.0970697C0.256183 0.15389 0.151368 0.262164 0.0937576 0.375568C0.00178685 0.556574 -0.000510069 0.6471 5.24425e-05 4.05838C0.00066183 7.80456 -0.000885076 7.77777 0.240292 8.26608C0.409327 8.60832 0.756209 8.96026 1.10094 9.13929L1.40544 9.29741L1.40558 15.6856C1.40572 20.2693 1.42077 22.1442 1.45893 22.3233C1.5456 22.7298 1.73193 23.0692 2.03653 23.3751C3.03443 24.3773 4.7117 24.1329 5.35526 22.8916C5.58233 22.4536 5.62461 22.2 5.62461 21.2758C5.62461 20.8369 5.633 20.4779 5.64322 20.4779C5.65344 20.4779 5.86058 20.6141 6.10345 20.7807C8.82516 22.647 12.3581 23.0975 15.5389 21.9838C16.1411 21.773 17.1911 21.2462 17.7655 20.8668C18.3851 20.4576 18.8581 20.0745 19.3754 19.563L19.7812 19.162V20.6179C19.7812 21.5252 19.8012 22.1678 19.8343 22.3233C19.921 22.7298 20.1073 23.0692 20.4119 23.3751C21.219 24.1856 22.4748 24.2106 23.3227 23.433C23.6001 23.1787 23.8693 22.7009 23.948 22.3233C23.9852 22.1447 24 19.0155 24 11.3175C24 0.630106 23.9994 0.559963 23.9056 0.37538C23.8428 0.251713 23.7452 0.155726 23.6137 0.0884078C23.4392 -0.00108274 23.3672 -0.00950926 22.9932 0.015582C20.9864 0.150124 19.2881 1.67071 18.9199 3.66252L18.865 3.95919L18.5614 3.71313C17.4492 2.81201 15.8612 2.03625 14.4357 1.69768C12.1633 1.15801 9.64254 1.41471 7.56889 2.39704C7.29115 2.52857 7.05648 2.63623 7.04744 2.63623C7.03834 2.63623 7.03089 2.16933 7.03089 1.59868C7.03089 0.651761 7.02264 0.544946 6.93653 0.37538C6.8304 0.166506 6.56035 0 6.32775 0C6.09515 0 5.8251 0.166506 5.71897 0.37538C5.62822 0.554079 5.62461 0.648936 5.62461 2.86972V5.17831H4.21833V2.86972C4.21833 0.648936 4.21472 0.554079 4.12397 0.37538C4.01784 0.166506 3.74779 0 3.51519 0C3.28259 0 3.01254 0.166506 2.90641 0.37538C2.81566 0.554079 2.81205 0.648936 2.81205 2.86972V5.17831H1.40577V2.86972C1.40577 0.648936 1.40216 0.554079 1.31141 0.37538C1.13844 0.034883 0.715005 -0.0893964 0.363295 0.0970697ZM22.5937 8.28529V15.0642H20.2499L20.2507 9.61517C20.2517 3.5308 20.2371 3.81632 20.5818 3.11405C20.8081 2.65308 21.2714 2.13346 21.6727 1.89055C21.9423 1.72739 22.4329 1.50948 22.5351 1.50755C22.5817 1.50665 22.5937 2.89298 22.5937 8.28529ZM12.8971 2.87387C15.0047 3.08797 16.8687 3.96818 18.41 5.47728L18.8436 5.90176V10.9085C18.8436 15.8335 18.8452 15.9183 18.938 16.1011C19.051 16.3234 19.3175 16.4764 19.5918 16.4764C19.7802 16.4764 19.7812 16.4774 19.7812 16.6573C19.7812 16.7988 19.7284 16.9143 19.5391 17.1869C17.1861 20.576 12.9795 21.9975 9.11687 20.7088C8.00736 20.3386 6.8837 19.6981 6.03477 18.9519L5.62461 18.5914V9.2961L5.87071 9.18053C6.17465 9.03779 6.64187 8.5749 6.79028 8.26947C7.01472 7.80743 7.02972 7.66088 7.03033 5.92422L7.03089 4.29282L7.39441 4.07881C9.03367 3.11367 11.0062 2.68175 12.8971 2.87387ZM5.62461 7.01962C5.62461 7.53189 5.5227 7.76878 5.24013 7.91354C5.07935 7.99592 4.94514 8.00284 3.51172 8.00284C1.98853 8.00284 1.95389 8.00072 1.77061 7.89729C1.4916 7.73983 1.40577 7.53251 1.40577 7.01613V6.59057H5.62461V7.01962ZM4.21833 15.7251C4.21833 21.9563 4.21716 22.0374 4.12397 22.2209C4.01784 22.4297 3.74779 22.5962 3.51519 22.5962C3.28259 22.5962 3.01254 22.4297 2.90641 22.2209C2.81322 22.0374 2.81205 21.9563 2.81205 15.7251V9.4151H4.21833V15.7251ZM22.5937 19.2558C22.5937 21.9484 22.5908 22.0409 22.4994 22.2209C22.3932 22.4297 22.1232 22.5962 21.8906 22.5962C21.658 22.5962 21.3879 22.4297 21.2818 22.2209C21.1904 22.0409 21.1874 21.9484 21.1874 19.2558V16.4764H22.5937V19.2558Z" fill="#4635ff"/>
<path d="M16.5581 12C16.5581 14.4853 14.559 16.5 12.093 16.5C9.62701 16.5 7.62791 14.4853 7.62791 12C7.62791 9.51472 9.62701 7.5 12.093 7.5C14.559 7.5 16.5581 9.51472 16.5581 12Z" fill="#4635ff"/>
</svg>
