<svg
                width="20"
                height="21"
                viewBox="0 0 20 21"
                fill="none"
                xmlns="http://www.w3.org/2000/svg"
              >
                <path
                  d="M19.998 2.67677C19.9975 1.33911 19.0465 0.23861 17.7382 0.0433837C17.7208 0.0409735 17.7069 0.0149433 17.6914 0C12.5317 0 7.37191 0 2.21215 0C2.06947 0.107013 1.88918 0.107013 1.72963 0.168714C0.697095 0.565434 0.00247455 1.54687 0.00199251 2.65122C-0.000417694 7.56563 -0.000899735 12.4805 0.00199251 17.3949C0.00247455 18.5967 0.821462 19.6432 1.98029 19.957C2.05741 19.9777 2.15671 19.9618 2.21167 20.0466C7.37143 20.0466 12.5317 20.0466 17.6914 20.0466C17.7715 19.944 17.8953 19.9931 17.9961 19.9656C19.1858 19.6412 19.9975 18.6048 19.998 17.3718C20.0004 12.4728 20.0009 7.57479 19.998 2.67677ZM1.53922 14.3022C1.53922 10.4882 1.53922 6.67482 1.53922 2.86091C1.53922 1.99276 1.98848 1.54205 2.85423 1.54205C7.62017 1.54205 12.3856 1.54205 17.1516 1.54205C18.0028 1.54205 18.4608 1.99661 18.4608 2.84308C18.4608 6.38367 18.4608 9.92474 18.4608 13.4653C18.4608 13.5376 18.4608 13.6095 18.4608 13.7271C18.3268 13.623 18.2164 13.54 18.1089 13.4542C17.5579 13.0146 17.0084 12.5731 16.4565 12.1349C15.663 11.5049 14.7062 11.4784 13.8852 12.0684C13.0923 12.6381 12.3042 13.2147 11.5131 13.7878C11.1868 14.024 10.9703 14.0086 10.6908 13.729C9.92577 12.963 9.16221 12.1956 8.39625 11.4306C7.50206 10.5374 6.37891 10.4979 5.4129 11.3178C4.17261 12.3706 2.92943 13.4195 1.68721 14.4699C1.65154 14.4998 1.6149 14.5282 1.53874 14.589C1.53922 14.4593 1.53922 14.3807 1.53922 14.3022ZM18.4608 17.2171C18.4598 18.0365 17.998 18.5036 17.1858 18.5041C14.791 18.5046 12.3962 18.5041 10.0014 18.5041C7.61486 18.5041 5.2278 18.5041 2.84121 18.5041C1.9933 18.5041 1.56477 18.0466 1.5291 17.1963C1.51126 16.7779 1.6419 16.5162 1.96583 16.251C3.48426 15.0074 4.9781 13.7333 6.48207 12.4714C6.77226 12.2279 7.01906 12.2409 7.2837 12.5114C8.05256 13.2961 8.81996 14.0823 9.58689 14.8685C10.4377 15.7406 11.5266 15.822 12.4975 15.0773C13.247 14.5022 13.9908 13.9199 14.738 13.3414C15.0099 13.1308 15.2277 13.1293 15.4948 13.3434C16.4449 14.105 17.3916 14.8705 18.3432 15.6302C18.4352 15.7034 18.4656 15.7786 18.4642 15.8924C18.4574 16.334 18.4613 16.7755 18.4608 17.2171Z"
                  fill="#030303"
                ></path>
                <path
                  d="M13.0899 9.77627C14.6189 9.77434 15.904 8.48777 15.9069 6.95585C15.9103 5.39934 14.6416 4.10988 13.099 4.10168C11.5396 4.09349 10.2487 5.37475 10.2468 6.93367C10.2449 8.49356 11.5295 9.7782 13.0899 9.77627ZM13.0711 5.66205C13.7792 5.65771 14.3475 6.22556 14.3495 6.93898C14.3514 7.64806 13.7831 8.21349 13.0701 8.21157C12.3553 8.20915 11.799 7.64324 11.8077 6.92693C11.8163 6.21929 12.3687 5.66591 13.0711 5.66205Z"
                  fill="#030303"
                ></path>
              </svg>