<svg
                width="20"
                height="20"
                viewBox="0 0 20 20"
                fill="none"
                xmlns="http://www.w3.org/2000/svg"
              >
                <path
                  d="M0.411057 8.32197C0.711926 7.99414 1.09446 7.84214 1.52232 7.77571C1.77865 7.73586 2.0338 7.68897 2.28973 7.64833C2.39523 7.63153 2.45814 7.58425 2.49096 7.47485C2.59764 7.12123 2.74377 6.78206 2.91257 6.45384C2.96259 6.35616 2.945 6.29247 2.88678 6.21198C2.70782 5.96503 2.53316 5.71456 2.36007 5.46332C1.88375 4.77054 1.91345 4.02227 2.47025 3.39357C2.76292 3.06301 3.07864 2.74963 3.41037 2.45853C4.02735 1.91736 4.76819 1.88649 5.44886 2.34717C5.70167 2.51832 5.95526 2.68868 6.19635 2.87545C6.30224 2.95751 6.38273 2.94852 6.48901 2.89421C6.80082 2.73557 7.12123 2.5949 7.45765 2.49761C7.59168 2.45892 7.63818 2.37921 7.65771 2.25105C7.70265 1.95643 7.75422 1.6626 7.81205 1.36993C7.95389 0.649409 8.3712 0.191072 9.09876 0.0320406C9.11439 0.028524 9.12689 0.0109407 9.14096 0C9.71378 0 10.2866 0 10.8594 0C11.1533 0.0945589 11.4424 0.194197 11.6776 0.409886C12.0113 0.715835 12.1602 1.10618 12.2251 1.54108C12.2626 1.79115 12.3102 2.03966 12.3497 2.28934C12.3665 2.39562 12.4161 2.45736 12.5248 2.48979C12.8788 2.59568 13.2179 2.74182 13.5458 2.9114C13.6435 2.96181 13.7071 2.94383 13.7876 2.88522C14.0397 2.70196 14.294 2.52144 14.5519 2.34678C15.2318 1.8861 15.9746 1.91697 16.5904 2.45853C16.9264 2.75432 17.2457 3.07395 17.5415 3.40998C18.0826 4.0254 18.1127 4.7678 17.652 5.44847C17.4809 5.70128 17.307 5.95213 17.1249 6.19713C17.055 6.2909 17.0405 6.36124 17.0976 6.47182C17.2605 6.78832 17.4047 7.11458 17.5028 7.45765C17.5415 7.59246 17.6224 7.63739 17.7501 7.65654C18.0514 7.70226 18.3519 7.75383 18.6508 7.81323C19.3146 7.94451 19.7499 8.3333 19.9484 8.98349C19.9605 9.02374 19.9437 9.07922 20 9.10071C20 9.69972 20 10.2987 20 10.8973C19.891 11.1638 19.8038 11.4397 19.6046 11.6616C19.2971 12.0039 18.9016 12.1575 18.4597 12.2239C18.2096 12.2614 17.9611 12.3087 17.7114 12.3485C17.6055 12.3653 17.543 12.4138 17.5106 12.5228C17.4047 12.8768 17.2586 13.2164 17.089 13.5442C17.0386 13.6415 17.0554 13.7056 17.114 13.7861C17.2973 14.0381 17.4778 14.2925 17.6528 14.5504C18.1139 15.2306 18.0834 15.9734 17.5415 16.5888C17.2457 16.9249 16.9261 17.2445 16.59 17.5403C15.9746 18.0819 15.2322 18.1119 14.5515 17.6513C14.2987 17.4801 14.0479 17.3062 13.8029 17.1242C13.7091 17.0542 13.6392 17.0394 13.5282 17.0964C13.2117 17.2594 12.8854 17.4035 12.5423 17.5016C12.4075 17.5399 12.3626 17.6212 12.3431 17.7489C12.2974 18.0502 12.2454 18.3507 12.1864 18.6496C12.0555 19.3139 11.6663 19.7488 11.0161 19.9472C10.9759 19.9594 10.9204 19.9426 10.8989 19.9988C10.3132 19.9988 9.72707 19.9988 9.14135 19.9988C9.12689 19.959 9.09016 19.9683 9.06047 19.9613C8.38722 19.7999 7.98281 19.3686 7.82339 18.7055C7.74016 18.3597 8.02423 18.0459 8.3755 18.0854C8.61385 18.1123 8.7639 18.2577 8.82212 18.4859C8.89479 18.7696 9.06828 18.9548 9.35743 18.9692C9.78568 18.9903 10.2163 18.9915 10.6441 18.9688C10.9419 18.9528 11.1236 18.7633 11.1775 18.4648C11.2549 18.0373 11.3389 17.6106 11.4045 17.1812C11.4479 16.8979 11.5909 16.719 11.866 16.6447C12.3935 16.5017 12.8948 16.2942 13.3699 16.025C13.6165 15.8855 13.8459 15.8961 14.0772 16.0649C14.4027 16.302 14.7348 16.5302 15.065 16.7612C15.4428 17.0257 15.6913 17.0058 16.0141 16.6857C16.2403 16.4611 16.4662 16.2356 16.6904 16.009C17.0015 15.6952 17.023 15.4397 16.7686 15.0751C16.5306 14.734 16.2946 14.3917 16.0516 14.0545C15.898 13.8412 15.8863 13.6259 16.0117 13.3996C16.2864 12.905 16.5037 12.3872 16.6541 11.8414C16.7256 11.5819 16.9022 11.4479 17.1679 11.4053C17.597 11.3369 18.0236 11.2533 18.4515 11.1779C18.7489 11.1255 18.9415 10.9552 18.9677 10.6551C19.0052 10.221 19.0028 9.78333 18.9688 9.34922C18.9454 9.04992 18.7563 8.87447 18.4585 8.82133C18.0373 8.74592 17.6177 8.65918 17.1941 8.59705C16.9022 8.55407 16.7213 8.41028 16.6439 8.12699C16.5017 7.60613 16.2981 7.10989 16.0309 6.64101C15.882 6.37999 15.9 6.1436 16.0805 5.90095C16.3286 5.56726 16.5634 5.2238 16.7979 4.88034C17.0144 4.56306 16.9901 4.29813 16.7221 4.02305C16.4861 3.7804 16.245 3.54283 16.0047 3.30448C15.698 3.00088 15.4409 2.97783 15.0861 3.22438C14.7446 3.46156 14.403 3.69874 14.0658 3.94217C13.8474 4.10003 13.627 4.11605 13.3934 3.98515C12.9053 3.71242 12.3935 3.49712 11.8535 3.3502C11.587 3.27752 11.4475 3.10013 11.4049 2.82505C11.3385 2.39562 11.2584 1.96855 11.1759 1.54186C11.1146 1.22536 10.9489 1.04757 10.6301 1.02843C10.2089 1.00303 9.78372 1.00264 9.36251 1.03038C9.04093 1.05187 8.88737 1.22067 8.82251 1.5485C8.73928 1.96815 8.65996 2.38937 8.59627 2.81254C8.55368 3.09505 8.41575 3.2783 8.13988 3.35333C7.60574 3.49829 7.09934 3.70968 6.61795 3.98085C6.37765 4.11605 6.15219 4.10081 5.92791 3.93865C5.58562 3.69132 5.23982 3.44867 4.89206 3.20914C4.56579 2.98447 4.30243 3.00752 4.01876 3.28417C3.78119 3.51587 3.54791 3.75227 3.31425 3.98789C2.99385 4.31025 2.9747 4.55915 3.23923 4.93699C3.47406 5.27225 3.70695 5.60867 3.94569 5.94119C4.09808 6.15297 4.11683 6.36788 3.99023 6.59607C3.71632 7.09075 3.49673 7.6077 3.34825 8.15434C3.2783 8.41262 3.10403 8.55172 2.83755 8.59431C2.40852 8.66308 1.98066 8.73928 1.55397 8.82251C1.2152 8.88854 1.04327 9.06398 1.02256 9.39689C1.00225 9.72746 1.02374 10.0608 1.01436 10.3925C1.00186 10.8473 1.1519 11.0919 1.56921 11.2025C1.83765 11.274 1.97519 11.5624 1.90603 11.8218C1.84351 12.057 1.56569 12.2321 1.31093 12.1817C1.00654 12.1211 0.738107 11.9852 0.505617 11.7742C0.241867 11.535 0.11644 11.2205 -4.28665e-07 10.8989C-4.28665e-07 10.3132 -4.28665e-07 9.72707 -4.28665e-07 9.14135C0.0965122 8.84673 0.195369 8.55719 0.411057 8.32197Z"
                  fill="#090808"
                ></path>
                <path
                  d="M4.6076 12.0293C5.07571 11.5522 5.31171 10.995 5.27303 10.3265C5.24958 9.92322 5.24998 9.52193 5.31445 9.12181C5.46059 8.21569 5.82593 7.40686 6.43157 6.72033C7.49126 5.51919 8.83501 4.97177 10.4327 5.04366C10.7156 5.05656 10.9661 5.14799 11.1595 5.36524C11.5264 5.77669 11.501 6.33662 11.0868 6.76604C10.6574 7.2111 10.2186 7.64677 9.78802 8.09026C9.43401 8.45482 9.43714 8.86588 9.79506 9.22301C10.1268 9.55397 10.4613 9.88219 10.8 10.2061C11.1412 10.5328 11.5553 10.5281 11.8906 10.1987C12.0625 10.0299 12.2286 9.85562 12.3986 9.68487C12.7151 9.36641 13.0136 9.02725 13.3531 8.73576C13.9271 8.24382 14.8141 8.57947 14.9227 9.32578C15.0462 10.1737 14.9145 10.995 14.5824 11.7824C13.7997 13.6376 11.9297 14.8508 9.85758 14.7348C9.13705 14.6945 8.54352 14.9423 8.04455 15.4643C7.04621 16.5087 6.03497 17.5407 5.02843 18.5773C4.96982 18.6379 4.91121 18.7012 4.84283 18.7492C4.5357 18.9645 4.13598 18.7993 4.05822 18.432C4.01485 18.2256 4.09378 18.0697 4.23249 17.9267C5.28475 16.8436 6.33428 15.7581 7.38693 14.6758C7.66983 14.3847 7.99492 14.1518 8.36691 13.9822C8.87643 13.7501 9.41135 13.686 9.96347 13.7122C10.3226 13.7294 10.6801 13.7067 11.0267 13.6098C12.5345 13.1898 13.4813 12.2169 13.8537 10.6969C13.9392 10.3476 13.976 9.98769 13.9185 9.55905C13.8451 9.65165 13.8091 9.70636 13.7642 9.75207C13.3863 10.1385 13.0116 10.5273 12.6275 10.9071C11.9039 11.6229 10.9262 11.6679 10.1612 10.9993C9.7552 10.6445 9.37931 10.2542 9.00147 9.86812C8.71662 9.57702 8.55212 9.22145 8.51773 8.81C8.46928 8.23327 8.67207 7.75032 9.07883 7.35293C9.4977 6.94383 9.92869 6.54762 10.3546 6.14555C10.3347 6.11585 10.3147 6.08616 10.2948 6.05646C10.2389 6.05646 10.1827 6.05373 10.1268 6.05685C9.99082 6.06467 9.85406 6.06896 9.71886 6.08499C8.28993 6.25496 7.2658 6.99619 6.63124 8.28289C6.29559 8.96356 6.26121 9.69034 6.28973 10.4312C6.3206 11.2326 6.06936 11.9519 5.52154 12.533C4.42786 13.6931 3.30878 14.8293 2.20025 15.9758C2.18228 15.9945 2.16352 16.0129 2.1436 16.0293C1.83921 16.2817 1.41799 16.1414 1.31953 15.7589C1.26443 15.544 1.34883 15.3834 1.49223 15.2357C2.53121 14.1678 3.56433 13.0933 4.6076 12.0293Z"
                  fill="#090808"
                ></path>
              </svg>