<svg
                width="20"
                height="20"
                viewBox="0 0 20 20"
                fill="none"
                xmlns="http://www.w3.org/2000/svg"
              >
                <path
                  d="M19.8847 8.5C19.5002 6.06923 18.3775 4.04615 16.5244 2.43077C15.0481 1.13846 13.318 0.369231 11.3802 0.0846154C11.1649 0.0538462 10.9496 0.0692308 10.7343 0C10.2115 0 9.69627 0 9.1734 0C8.96578 0.0846154 8.7351 0.0692308 8.5198 0.107692C4.89043 0.738462 2.32987 2.74615 0.799692 6.08462C0.361399 7.03846 0.130719 8.05385 0.0384468 9.10769C0.0384468 9.13846 0.0384468 9.17692 0 9.18462C0 9.73077 0 10.2769 0 10.8231C0.0845829 11.0308 0.0692042 11.2615 0.107651 11.4769C0.738178 15.1077 2.7451 17.6692 6.08228 19.2C7.03576 19.6385 8.05075 19.8692 9.10419 19.9615C9.13495 19.9615 9.17339 19.9615 9.18108 20C9.70396 20 10.2191 20 10.742 20C10.9881 19.9231 11.2418 19.9308 11.4956 19.8923C13.2411 19.6231 14.802 18.9462 16.1861 17.8538C18.0777 16.3538 19.2695 14.4077 19.7924 12.0538C19.877 11.6769 19.9385 11.2846 19.9616 10.9C19.9616 10.8692 19.9616 10.8308 20 10.8231C20 10.2923 20 9.75385 20 9.22308C19.9077 8.98462 19.9231 8.73846 19.8847 8.5ZM9.97309 18.3692C5.3441 18.3385 1.61476 14.5923 1.63014 9.98462C1.64552 5.36154 5.4133 1.6 10.0192 1.63077C14.6482 1.66154 18.3775 5.40769 18.3622 10.0154C18.3468 14.6462 14.579 18.4 9.97309 18.3692Z"
                  fill="#060605"
                ></path>
                <path
                  d="M13.787 6.73077C12.1261 8.30769 10.4575 9.87692 8.80431 11.4615C8.69665 11.5692 8.63514 11.5615 8.53518 11.4538C7.797 10.6923 7.05882 9.93077 6.32065 9.16923C6.25144 9.1 6.18224 9.03077 6.10534 8.96923C5.84391 8.77692 5.5594 8.75385 5.25952 8.89231C4.95963 9.03846 4.82891 9.29231 4.80584 9.56923C4.80584 9.87692 4.92887 10.0846 5.10573 10.2615C6.05921 11.2308 7.005 12.2077 7.95079 13.1846C8.40446 13.6538 8.83506 13.6615 9.30411 13.2231C10.8804 11.7308 12.4491 10.2385 14.0177 8.75385C14.3329 8.45385 14.6559 8.16154 14.9635 7.85385C15.2787 7.53846 15.2864 7.09231 15.0173 6.76154C14.7097 6.36923 14.1869 6.35385 13.787 6.73077Z"
                  fill="#060605"
                ></path>
              </svg>